<svg width="165" height="64" viewBox="0 0 165 64" fill="none" xmlns="http://www.w3.org/2000/svg">
<path d="M1 58H65V61H1V58Z" fill="#2B2323"/>
<path d="M71 7H164V10H71V7Z" fill="#2B2323"/>
<rect x="157.275" y="44.275" width="6.45" height="6.45" rx="3.225" fill="#FFD682"/>
<rect x="157.275" y="44.275" width="6.45" height="6.45" rx="3.225" stroke="black" stroke-width="0.55"/>
<path d="M158.302 17.016C160.222 17.016 161.673 17.592 162.654 18.744C163.635 19.896 164.126 21.2827 164.126 22.904C164.126 24.4827 163.657 25.784 162.718 26.808C161.822 27.7893 160.627 28.28 159.134 28.28C157.683 28.28 156.531 27.9173 155.678 27.192C154.825 26.424 154.398 25.4213 154.398 24.184C154.398 22.136 155.337 20.472 157.214 19.192C157.043 19.1493 156.787 19.128 156.446 19.128C156.019 19.128 155.678 19.1707 155.422 19.256C153.801 19.512 152.414 20.4933 151.262 22.2C150.153 23.9067 149.598 25.656 149.598 27.448V44.408C149.598 46.3707 150.067 47.736 151.006 48.504C151.987 49.272 153.523 49.656 155.614 49.656V51C155.017 51 154.526 50.9787 154.142 50.936C149.79 50.808 146.889 50.744 145.438 50.744C144.286 50.744 141.662 50.808 137.566 50.936C137.225 50.9787 136.798 51 136.286 51V49.656C137.822 49.656 138.889 49.336 139.486 48.696C140.083 48.0133 140.382 46.7973 140.382 45.048V24.888C140.382 22.9253 140.083 21.496 139.486 20.6C138.889 19.704 137.822 19.256 136.286 19.256V17.912C137.651 18.04 138.974 18.104 140.254 18.104C144.051 18.104 147.166 17.8053 149.598 17.208V23.16C150.409 21.3253 151.582 19.8533 153.118 18.744C154.654 17.592 156.382 17.016 158.302 17.016Z" fill="#2B2323"/>
<path d="M123.227 46.648C126.726 46.648 129.542 44.9413 131.675 41.528L132.827 41.912C131.974 44.6853 130.438 47.0533 128.219 49.016C126.043 50.936 123.313 51.896 120.027 51.896C115.505 51.896 111.899 50.4667 109.211 47.608C106.566 44.7067 105.243 40.44 105.243 34.808C105.243 29.048 106.672 24.6533 109.531 21.624C112.39 18.552 116.187 17.016 120.923 17.016C128.945 17.016 132.955 21.752 132.955 31.224H114.971C114.929 31.864 114.907 32.8667 114.907 34.232C114.907 37.048 115.291 39.3947 116.059 41.272C116.87 43.1493 117.894 44.5147 119.131 45.368C120.411 46.2213 121.777 46.648 123.227 46.648ZM120.539 18.36C119.003 18.36 117.723 19.32 116.699 21.24C115.718 23.1173 115.099 26.04 114.843 30.008H124.891C124.977 26.6373 124.635 23.864 123.867 21.688C123.142 19.4693 122.033 18.36 120.539 18.36Z" fill="#2B2323"/>
<path d="M100.372 24.056C99.5185 24.056 98.7932 23.7787 98.1959 23.224C97.5985 22.6267 97.2999 21.7947 97.2999 20.728C97.2999 19.704 97.5559 18.6587 98.0679 17.592C97.0439 18.0187 96.1905 18.5093 95.5079 19.064C94.8679 19.576 94.3132 20.2373 93.8439 21.048C95.1665 22.6267 95.8279 24.6747 95.8279 27.192C95.8279 30.5627 94.6545 33.1013 92.3079 34.808C90.0039 36.5147 86.9319 37.368 83.0919 37.368H81.9399C80.1905 38.392 79.3159 39.5227 79.3159 40.76C79.3159 42.1253 80.1692 42.808 81.8759 42.808H88.8519C92.6065 42.808 95.5932 43.512 97.8119 44.92C100.073 46.2853 101.204 48.3973 101.204 51.256C101.204 53.432 100.5 55.3947 99.0919 57.144C97.7265 58.936 95.6359 60.3653 92.8199 61.432C90.0039 62.4987 86.5479 63.032 82.4519 63.032C78.3132 63.032 74.9852 62.4987 72.4679 61.432C69.9932 60.408 68.7559 58.9147 68.7559 56.952C68.7559 55.6293 69.3532 54.4347 70.5479 53.368C71.7425 52.344 73.5132 51.5333 75.8599 50.936L76.4359 51.96C74.8999 53.24 74.1319 54.712 74.1319 56.376C74.1319 58.168 74.9425 59.5333 76.5639 60.472C78.1852 61.4533 80.4252 61.944 83.2839 61.944C86.2705 61.944 88.6812 61.3467 90.5159 60.152C92.3932 58.9573 93.3319 57.272 93.3319 55.096C93.3319 53.688 92.7985 52.5787 91.7319 51.768C90.7079 50.9573 88.8945 50.552 86.2919 50.552H82.3239C79.5932 50.552 77.4599 50.104 75.9239 49.208C74.3879 48.2693 73.6199 46.8613 73.6199 44.984C73.6199 43.4053 74.1745 41.9973 75.2839 40.76C76.3932 39.5227 78.0785 38.328 80.3399 37.176C77.2679 36.792 74.8359 35.768 73.0439 34.104C71.2519 32.44 70.3559 30.136 70.3559 27.192C70.3559 23.8213 71.5079 21.2827 73.8119 19.576C76.1585 17.8693 79.2519 17.016 83.0919 17.016C87.3585 17.016 90.6225 18.0187 92.8839 20.024C93.6945 18.872 94.6972 17.9547 95.8919 17.272C97.0865 16.5893 98.3025 16.248 99.5399 16.248C100.82 16.248 101.823 16.632 102.548 17.4C103.316 18.1253 103.7 19.0853 103.7 20.28C103.7 21.4747 103.359 22.4133 102.676 23.096C102.036 23.736 101.268 24.056 100.372 24.056ZM83.0919 36.216C84.2865 36.216 85.1825 35.5333 85.7799 34.168C86.4199 32.8027 86.7399 30.4773 86.7399 27.192C86.7399 23.9067 86.4199 21.5813 85.7799 20.216C85.1825 18.8507 84.2865 18.168 83.0919 18.168C81.8972 18.168 80.9799 18.8507 80.3399 20.216C79.7425 21.5813 79.4439 23.9067 79.4439 27.192C79.4439 30.4773 79.7425 32.8027 80.3399 34.168C80.9799 35.5333 81.8972 36.216 83.0919 36.216Z" fill="#2B2323"/>
<path d="M63.2738 43.96C63.2738 45.9227 63.5725 47.352 64.1698 48.248C64.7671 49.144 65.8338 49.592 67.3698 49.592V50.936C66.0471 50.808 64.7245 50.744 63.4018 50.744C59.6045 50.744 56.4898 51.0427 54.0578 51.64V46.136C52.6071 49.976 49.8338 51.896 45.7378 51.896C41.7271 51.896 38.5271 50.4453 36.1378 47.544C33.7911 44.6 32.6391 40.184 32.6818 34.296C32.6818 30.5413 33.2791 27.384 34.4738 24.824C35.7111 22.2213 37.3965 20.28 39.5298 19C41.7058 17.6773 44.1805 17.016 46.9538 17.016C50.0685 17.016 52.4365 17.8267 54.0578 19.448V8.568C54.0578 6.60533 53.7378 5.176 53.0978 4.28C52.5005 3.384 51.4551 2.936 49.9618 2.936V1.592C51.3271 1.72 52.6498 1.784 53.9298 1.784C57.6418 1.784 60.7565 1.48533 63.2738 0.888V43.96ZM48.3618 49.144C49.7698 49.144 51.0071 48.632 52.0738 47.608C53.1831 46.584 53.8445 45.1973 54.0578 43.448V21.048C52.9911 19.5973 51.4338 18.872 49.3858 18.872C47.1245 18.872 45.3751 20.1733 44.1378 22.776C42.9005 25.3787 42.3031 29.2613 42.3458 34.424C42.3031 39.6293 42.7938 43.384 43.8178 45.688C44.8845 47.992 46.3991 49.144 48.3618 49.144Z" fill="#2B2323"/>
<path d="M18.3522 46.648C21.8508 46.648 24.6668 44.9413 26.8002 41.528L27.9522 41.912C27.0988 44.6853 25.5628 47.0533 23.3442 49.016C21.1682 50.936 18.4375 51.896 15.1522 51.896C10.6295 51.896 7.02416 50.4667 4.33616 47.608C1.69083 44.7067 0.368164 40.44 0.368164 34.808C0.368164 29.048 1.7975 24.6533 4.65616 21.624C7.51483 18.552 11.3122 17.016 16.0482 17.016C24.0695 17.016 28.0802 21.752 28.0802 31.224H10.0962C10.0535 31.864 10.0322 32.8667 10.0322 34.232C10.0322 37.048 10.4162 39.3947 11.1842 41.272C11.9948 43.1493 13.0188 44.5147 14.2562 45.368C15.5362 46.2213 16.9015 46.648 18.3522 46.648ZM15.6642 18.36C14.1282 18.36 12.8482 19.32 11.8242 21.24C10.8428 23.1173 10.2242 26.04 9.96816 30.008H20.0162C20.1015 26.6373 19.7602 23.864 18.9922 21.688C18.2668 19.4693 17.1575 18.36 15.6642 18.36Z" fill="#2B2323"/>
</svg>
