<svg width="0" height="0" xmlns="http://www.w3.org/2000/svg" xmlns:xlink="http://www.w3.org/1999/xlink" style="display:none">

    <symbol id="search-icon" viewBox="0 0 21 21">
        <path d="M15.6406 14.4083L15.361 14.7578L15.6774 15.0742L19.6066 19.0034L18.8995 19.7105L14.9704 15.7813L14.6539 15.4649L14.3044 15.7445C12.8499 16.9082 11.0063 17.6039 9 17.6039C4.30814 17.6039 0.5 13.7957 0.5 9.10388C0.5 4.41202 4.30814 0.603882 9 0.603882C13.6919 0.603882 17.5 4.41202 17.5 9.10388C17.5 11.1102 16.8043 12.9538 15.6406 14.4083Z" fill="white" stroke="#302B2B"/>
    </symbol>
    <symbol id="comments-icon" viewBox="0 0 20 20">
        <path fill="currentColor" d="M8.5457 1.22501H12.1457C13.0912 1.22501 14.0275 1.41124 14.901 1.77307C15.7746 2.13491 16.5683 2.66526 17.2369 3.33384C17.9055 4.00242 18.4358 4.79614 18.7976 5.66969C19.1595 6.54323 19.3457 7.47949 19.3457 8.42501C19.3457 9.37052 19.1595 10.3068 18.7976 11.1803C18.4358 12.0539 17.9055 12.8476 17.2369 13.5162C16.5683 14.1848 15.7746 14.7151 14.901 15.0769C14.0275 15.4388 13.0912 15.625 12.1457 15.625V18.775C7.6457 16.975 1.3457 14.275 1.3457 8.42501C1.3457 6.51545 2.10427 4.6841 3.45453 3.33384C4.8048 1.98358 6.63614 1.22501 8.5457 1.22501Z" />
    </symbol>
    <symbol id="locked-icon" viewBox="0 0 24 24">
        <path fill="currentColor" d="M18 8H20C20.5523 8 21 8.44772 21 9V21C21 21.5523 20.5523 22 20 22H4C3.44772 22 3 21.5523 3 21V9C3 8.44772 3.44772 8 4 8H6V7C6 3.68629 8.68629 1 12 1C15.3137 1 18 3.68629 18 7V8ZM11 15.7324V18H13V15.7324C13.5978 15.3866 14 14.7403 14 14C14 12.8954 13.1046 12 12 12C10.8954 12 10 12.8954 10 14C10 14.7403 10.4022 15.3866 11 15.7324ZM16 8V7C16 4.79086 14.2091 3 12 3C9.79086 3 8 4.79086 8 7V8H16Z"></path>
    </symbol>
    <symbol id="vip-icon" viewBox="0 0 24 24">
        <path fill="currentColor" d="M4.87759 3.00275H19.1319C19.4518 3.00275 19.7524 3.15583 19.9406 3.41457L23.7634 8.67097C23.9037 8.86385 23.8882 9.12895 23.7265 9.30419L12.3721 21.6047C12.1848 21.8076 11.8685 21.8203 11.6656 21.633C11.6558 21.6239 11.6464 21.6145 11.6373 21.6047L0.282992 9.30419C0.121226 9.12895 0.10575 8.86385 0.246026 8.67097L4.06886 3.41457C4.25704 3.15583 4.55766 3.00275 4.87759 3.00275Z"></path>
    </symbol>
    <symbol id="featured-icon" viewBox="0 0 24 24">
        <path fill="currentColor" d="M12.0006 18.26L4.94715 22.2082L6.52248 14.2799L0.587891 8.7918L8.61493 7.84006L12.0006 0.5L15.3862 7.84006L23.4132 8.7918L17.4787 14.2799L19.054 22.2082L12.0006 18.26Z"></path>
    </symbol>

    <symbol id="menu-icon" viewBox="0 0 24 24">
        <path fill="currentColor" d="M8.191 3.156a5.901 5.901 0 0 0-2.695 0 3.14 3.14 0 0 0-2.34 2.34 5.901 5.901 0 0 0 0 2.695 3.14 3.14 0 0 0 2.34 2.34 5.9 5.9 0 0 0 2.695 0 3.14 3.14 0 0 0 2.34-2.34 5.9 5.9 0 0 0 0-2.695 3.14 3.14 0 0 0-2.34-2.34ZM8.191 13.469a5.9 5.9 0 0 0-2.695 0 3.14 3.14 0 0 0-2.34 2.34 5.901 5.901 0 0 0 0 2.695 3.14 3.14 0 0 0 2.34 2.34 5.902 5.902 0 0 0 2.695 0 3.14 3.14 0 0 0 2.34-2.34 5.9 5.9 0 0 0 0-2.695 3.14 3.14 0 0 0-2.34-2.34ZM18.504 3.156a5.901 5.901 0 0 0-2.695 0 3.14 3.14 0 0 0-2.34 2.34 5.9 5.9 0 0 0 0 2.695 3.14 3.14 0 0 0 2.34 2.34 5.9 5.9 0 0 0 2.695 0 3.14 3.14 0 0 0 2.34-2.34 5.902 5.902 0 0 0 0-2.695 3.14 3.14 0 0 0-2.34-2.34ZM18.504 13.469a5.9 5.9 0 0 0-2.695 0 3.14 3.14 0 0 0-2.34 2.34 5.9 5.9 0 0 0 0 2.695 3.14 3.14 0 0 0 2.34 2.34 5.902 5.902 0 0 0 2.695 0 3.14 3.14 0 0 0 2.34-2.34 5.902 5.902 0 0 0 0-2.695 3.14 3.14 0 0 0-2.34-2.34Z"/>
    </symbol>
    <symbol id="close-icon" viewBox="0 0 24 24">
        <path fill="currentColor" d="m12 10.586 4.95-4.95 1.415 1.415-4.95 4.95 4.95 4.95-1.415 1.414-4.95-4.95-4.95 4.95-1.413-1.415 4.95-4.95-4.95-4.95L7.05 5.638l4.95 4.95Z"/>
    </symbol>
    <symbol id="reading-icon" viewBox="0 0 24 24">
        <path fill="currentColor" d="M6.382 5.968A8.962 8.962 0 0 1 12 4c2.125 0 4.078.736 5.618 1.968l1.453-1.453 1.414 1.414-1.453 1.453A9 9 0 1 1 3 13c0-2.125.736-4.078 1.968-5.618L3.515 5.93l1.414-1.414 1.453 1.453ZM12 20a7 7 0 1 0 0-14 7 7 0 0 0 0 14Zm1-8h3l-5 6.5V14H8l5-6.505V12ZM8 1h8v2H8V1Z"/>
    </symbol>  
    <symbol id="author-icon" viewBox="0 0 24 24">
        <g fill="none" stroke="currentColor" stroke-linecap="round" stroke-linejoin="round" stroke-width="2"><circle cx="12" cy="8" r="5"/><path d="M20 21a8 8 0 1 0-16 0m16 0a8 8 0 1 0-16 0"/></g>
    </symbol>  
    <symbol id="clock-icon" viewBox="0 0 24 24">
        <g fill="none" stroke="currentColor" stroke-linecap="round" stroke-linejoin="round" stroke-width="2"><circle cx="12" cy="12" r="9"/><path d="M12 7v3.764a2 2 0 0 0 1.106 1.789L16 14"/></g>
    </symbol> 

    <symbol id="calendar-icon" viewBox="0 0 24 24">
        <path fill="currentColor" d="M2 11H22V20C22 20.5523 21.5523 21 21 21H3C2.44772 21 2 20.5523 2 20V11ZM17 3H21C21.5523 3 22 3.44772 22 4V9H2V4C2 3.44772 2.44772 3 3 3H7V1H9V3H15V1H17V3Z"></path>
    </symbol> 
    <symbol id="tag-icon" viewBox="0 0 19 19">
        <path fill="none" stroke="currentColor" stroke-linecap="round" stroke-linejoin="round" stroke-width="2" d="M2.375 8.845V3.958a1.583 1.583 0 0 1 1.583-1.583h4.886c.42 0 .823.167 1.12.464l6.333 6.333a1.583 1.583 0 0 1 0 2.24l-4.886 4.885a1.583 1.583 0 0 1-2.239 0L2.84 9.964a1.583 1.583 0 0 1-.464-1.12Z"/><circle cx="7.25" cy="7.25" r="1.5" fill="currentColor" />
    </symbol> 
    <symbol id="fill-tag-icon" viewBox="0 0 24 24">
        <path d="m10.904 2.1 9.9 1.414 1.414 9.9-9.193 9.192a1 1 0 0 1-1.414 0l-9.9-9.9a1 1 0 0 1 0-1.413L10.905 2.1Zm2.829 8.486a2 2 0 1 0 2.828-2.829 2 2 0 0 0-2.828 2.829Z"/>
    </symbol> 
    <symbol id="medal-icon" viewBox="0 0 24 24">
        <path fill="currentColor" d="M17 15.245v6.872a.5.5 0 0 1-.757.429L12 20l-4.243 2.546a.5.5 0 0 1-.757-.43v-6.87a8 8 0 1 1 10 0ZM12 15a6 6 0 1 0 0-12 6 6 0 0 0 0 12Zm0-2a4 4 0 1 1 0-8 4 4 0 0 1 0 8Z"/>
    </symbol>   
    <symbol id="separator-icon" viewBox="0 0 16 9">
        <path d="M16 4.5C14.5867 4.5 13.8698 3.9625 13.1767 3.4425C12.5305 2.9575 11.9197 2.5 10.6667 2.5C9.41359 2.5 8.80288 2.95813 8.15634 3.4425C7.46327 3.9625 6.74667 4.5 5.33307 4.5C3.91948 4.5 3.20314 3.9625 2.51007 3.4425C1.86379 2.9575 1.25307 2.5 0 2.5V0C1.41333 0 2.12993 0.5375 2.82301 1.0575C3.46928 1.5425 4.08 2 5.33307 2C6.58614 2 7.19686 1.54188 7.84314 1.0575C8.53647 0.5375 9.25307 0 10.6667 0C12.0803 0 12.7969 0.5375 13.4899 1.0575C14.1362 1.5425 14.7469 2 16.0003 2V4.5H16Z"/>       
    </symbol>
    <symbol id="website-icon" viewBox="0 0 24 24">
        <path d="M6.23509 6.45329C4.85101 7.89148 4 9.84636 4 12C4 16.4183 7.58172 20 12 20C13.0808 20 14.1116 19.7857 15.0521 19.3972C15.1671 18.6467 14.9148 17.9266 14.8116 17.6746C14.582 17.115 13.8241 16.1582 12.5589 14.8308C12.2212 14.4758 12.2429 14.2035 12.3636 13.3943L12.3775 13.3029C12.4595 12.7486 12.5971 12.4209 14.4622 12.1248C15.4097 11.9746 15.6589 12.3533 16.0043 12.8777C16.0425 12.9358 16.0807 12.9928 16.1198 13.0499C16.4479 13.5297 16.691 13.6394 17.0582 13.8064C17.2227 13.881 17.428 13.9751 17.7031 14.1314C18.3551 14.504 18.3551 14.9247 18.3551 15.8472V15.9518C18.3551 16.3434 18.3168 16.6872 18.2566 16.9859C19.3478 15.6185 20 13.8854 20 12C20 8.70089 18.003 5.8682 15.1519 4.64482C14.5987 5.01813 13.8398 5.54726 13.575 5.91C13.4396 6.09538 13.2482 7.04166 12.6257 7.11976C12.4626 7.14023 12.2438 7.12589 12.012 7.11097C11.3905 7.07058 10.5402 7.01606 10.268 7.75495C10.0952 8.2232 10.0648 9.49445 10.6239 10.1543C10.7134 10.2597 10.7307 10.4547 10.6699 10.6735C10.59 10.9608 10.4286 11.1356 10.3783 11.1717C10.2819 11.1163 10.0896 10.8931 9.95938 10.7412C9.64554 10.3765 9.25405 9.92233 8.74797 9.78176C8.56395 9.73083 8.36166 9.68867 8.16548 9.64736C7.6164 9.53227 6.99443 9.40134 6.84992 9.09302C6.74442 8.8672 6.74488 8.55621 6.74529 8.22764C6.74529 7.8112 6.74529 7.34029 6.54129 6.88256C6.46246 6.70541 6.35689 6.56446 6.23509 6.45329ZM12 22C6.47715 22 2 17.5228 2 12C2 6.47715 6.47715 2 12 2C17.5228 2 22 6.47715 22 12C22 17.5228 17.5228 22 12 22Z"></path>
    </symbol>
    <symbol id="bell-icon" viewBox="0 0 24 24">
        <path fill="none" stroke="currentColor" stroke-linecap="round" stroke-linejoin="round" stroke-width="2" d="M12 5c-2 0-6 1.2-6 6v4l-2 2h5m3-12c4.8 0 6 4 6 6v4l2 2h-5M12 5V3M9 17v1c0 1 .6 3 3 3s3-2 3-3v-1m-6 0h6"/>
    </symbol>
    <symbol id="title-decoration" viewBox="0 0 15 15">
        <path d="M8.75841 6.06067L8.79481 6.20616L8.9403 6.24253L13.9697 7.50008L8.94026 8.75841L8.79481 8.79481L8.75841 8.94026L7.49992 13.9703L6.24064 8.94022L6.20424 8.79481L6.05881 8.75842L1.03017 7.50008L6.05878 6.24253L6.20424 6.20616L6.24064 6.06071L7.49992 1.02987L8.75841 6.06067Z" fill="#FEBDD0" stroke="black" stroke-width="0.5"/>
    </symbol>
    <symbol id="trending-icon" viewBox="0 0 24 24">
        <path fill="#1F1B1B" d="m6.67 7.914 3.062-4.143C11.71 1.093 12.7-.246 13.624.037c.923.283.923 1.925.923 5.21v.31c0 1.185 0 1.777.379 2.148l.02.02c.387.363 1.003.363 2.236.363 2.22 0 3.329 0 3.704.673l.018.034c.354.683-.289 1.553-1.574 3.29l-3.062 4.144c-1.98 2.678-2.969 4.017-3.892 3.734-.923-.283-.923-1.925-.923-5.21v-.31c0-1.184 0-1.777-.379-2.148l-.02-.02c-.387-.363-1.003-.363-2.236-.363-2.22 0-3.329 0-3.704-.673a1.084 1.084 0 0 1-.018-.034c-.354-.683.289-1.552 1.574-3.29Z"/>
        <path fill="currentColor" d="m5.67 7.914 3.062-4.143C10.71 1.093 11.7-.246 12.624.037c.923.283.923 1.925.923 5.21v.31c0 1.185 0 1.777.379 2.148l.02.02c.387.363 1.003.363 2.236.363 2.22 0 3.329 0 3.704.673l.018.034c.354.683-.289 1.553-1.574 3.29l-3.062 4.144c-1.98 2.678-2.969 4.017-3.892 3.734-.923-.283-.923-1.925-.923-5.21v-.31c0-1.184 0-1.777-.379-2.148l-.02-.02c-.387-.363-1.003-.363-2.236-.363-2.22 0-3.329 0-3.704-.673a1.084 1.084 0 0 1-.018-.034c-.354-.683.289-1.552 1.574-3.29Z"/>
    </symbol>
    <symbol id="left-arrow" viewBox="0 0 24 14">
        <path fill="currentColor" fill-rule="evenodd" d="m6.788 13.6 1.697-1.836-3.89-3.954H24V5.495H4.595l3.89-3.556L6.788.399 0 6.702 6.788 13.6Z" clip-rule="evenodd"/>
    </symbol>
    <symbol id="right-arrow" viewBox="0 0 24 14">
        <path fill="currentColor" fill-rule="evenodd" d="m17.212 13.6-1.697-1.836 3.89-3.954H0V5.495h19.405l-3.89-3.556 1.697-1.54L24 6.702 17.212 13.6Z" clip-rule="evenodd"/>
    </symbol> 
    <symbol id="bottom-arrow" viewBox="0 0 8 17">
        <path fill-rule="evenodd" clip-rule="evenodd" d="M4.00004 16.2071L7.35359 12.8536L6.64648 12.1464L4.00004 14.7929L1.35359 12.1464L0.646484 12.8536L4.00004 16.2071Z" fill="black"/>
        <path fill-rule="evenodd" clip-rule="evenodd" d="M3.5 0.5V15.5H4.5V0.5H3.5Z" fill="black"/>
    </symbol> 

    <symbol id="twitter-icon" viewBox="0 0 24 24">
        <path fill="currentColor" d="M18.205 2.25h3.308l-7.227 8.26 8.502 11.24H16.13l-5.214-6.817L4.95 21.75H1.64l7.73-8.835L1.215 2.25H8.04l4.713 6.231 5.45-6.231Zm-1.161 17.52h1.833L7.045 4.126H5.078L17.044 19.77Z"/>
    </symbol>
    <symbol id="facebook-icon" viewBox="0 0 24 24">
        <path fill="currentColor" d="M14 13.5H16.5L17.5 9.5H14V7.5C14 6.47062 14 5.5 16 5.5H17.5V2.1401C17.1743 2.09685 15.943 2 14.6429 2C11.9284 2 10 3.65686 10 6.69971V9.5H7V13.5H10V22H14V13.5Z"></path>
    </symbol>
    <symbol id="instagram-icon" viewBox="0 0 24 24">
        <path fill="currentColor" d="M12.001 9C10.3436 9 9.00098 10.3431 9.00098 12C9.00098 13.6573 10.3441 15 12.001 15C13.6583 15 15.001 13.6569 15.001 12C15.001 10.3427 13.6579 9 12.001 9ZM12.001 7C14.7614 7 17.001 9.2371 17.001 12C17.001 14.7605 14.7639 17 12.001 17C9.24051 17 7.00098 14.7629 7.00098 12C7.00098 9.23953 9.23808 7 12.001 7ZM18.501 6.74915C18.501 7.43926 17.9402 7.99917 17.251 7.99917C16.5609 7.99917 16.001 7.4384 16.001 6.74915C16.001 6.0599 16.5617 5.5 17.251 5.5C17.9393 5.49913 18.501 6.0599 18.501 6.74915ZM12.001 4C9.5265 4 9.12318 4.00655 7.97227 4.0578C7.18815 4.09461 6.66253 4.20007 6.17416 4.38967C5.74016 4.55799 5.42709 4.75898 5.09352 5.09255C4.75867 5.4274 4.55804 5.73963 4.3904 6.17383C4.20036 6.66332 4.09493 7.18811 4.05878 7.97115C4.00703 9.0752 4.00098 9.46105 4.00098 12C4.00098 14.4745 4.00753 14.8778 4.05877 16.0286C4.0956 16.8124 4.2012 17.3388 4.39034 17.826C4.5591 18.2606 4.7605 18.5744 5.09246 18.9064C5.42863 19.2421 5.74179 19.4434 6.17187 19.6094C6.66619 19.8005 7.19148 19.9061 7.97212 19.9422C9.07618 19.9939 9.46203 20 12.001 20C14.4755 20 14.8788 19.9934 16.0296 19.9422C16.8117 19.9055 17.3385 19.7996 17.827 19.6106C18.2604 19.4423 18.5752 19.2402 18.9074 18.9085C19.2436 18.5718 19.4445 18.2594 19.6107 17.8283C19.8013 17.3358 19.9071 16.8098 19.9432 16.0289C19.9949 14.9248 20.001 14.5389 20.001 12C20.001 9.52552 19.9944 9.12221 19.9432 7.97137C19.9064 7.18906 19.8005 6.66149 19.6113 6.17318C19.4434 5.74038 19.2417 5.42635 18.9084 5.09255C18.573 4.75715 18.2616 4.55693 17.8271 4.38942C17.338 4.19954 16.8124 4.09396 16.0298 4.05781C14.9258 4.00605 14.5399 4 12.001 4ZM12.001 2C14.7176 2 15.0568 2.01 16.1235 2.06C17.1876 2.10917 17.9135 2.2775 18.551 2.525C19.2101 2.77917 19.7668 3.1225 20.3226 3.67833C20.8776 4.23417 21.221 4.7925 21.476 5.45C21.7226 6.08667 21.891 6.81333 21.941 7.8775C21.9885 8.94417 22.001 9.28333 22.001 12C22.001 14.7167 21.991 15.0558 21.941 16.1225C21.8918 17.1867 21.7226 17.9125 21.476 18.55C21.2218 19.2092 20.8776 19.7658 20.3226 20.3217C19.7668 20.8767 19.2076 21.22 18.551 21.475C17.9135 21.7217 17.1876 21.89 16.1235 21.94C15.0568 21.9875 14.7176 22 12.001 22C9.28431 22 8.94514 21.99 7.87848 21.94C6.81431 21.8908 6.08931 21.7217 5.45098 21.475C4.79264 21.2208 4.23514 20.8767 3.67931 20.3217C3.12348 19.7658 2.78098 19.2067 2.52598 18.55C2.27848 17.9125 2.11098 17.1867 2.06098 16.1225C2.01348 15.0558 2.00098 14.7167 2.00098 12C2.00098 9.28333 2.01098 8.94417 2.06098 7.8775C2.11014 6.8125 2.27848 6.0875 2.52598 5.45C2.78014 4.79167 3.12348 4.23417 3.67931 3.67833C4.23514 3.1225 4.79348 2.78 5.45098 2.525C6.08848 2.2775 6.81348 2.11 7.87848 2.06C8.94514 2.0125 9.28431 2 12.001 2Z"></path>
    </symbol>
    <symbol id="whatsapp-icon" viewBox="0 0 24 24">
        <path fill="currentColor" d="M7.25361 18.4944L7.97834 18.917C9.18909 19.623 10.5651 20 12.001 20C16.4193 20 20.001 16.4183 20.001 12C20.001 7.58172 16.4193 4 12.001 4C7.5827 4 4.00098 7.58172 4.00098 12C4.00098 13.4363 4.37821 14.8128 5.08466 16.0238L5.50704 16.7478L4.85355 19.1494L7.25361 18.4944ZM2.00516 22L3.35712 17.0315C2.49494 15.5536 2.00098 13.8345 2.00098 12C2.00098 6.47715 6.47813 2 12.001 2C17.5238 2 22.001 6.47715 22.001 12C22.001 17.5228 17.5238 22 12.001 22C10.1671 22 8.44851 21.5064 6.97086 20.6447L2.00516 22ZM8.39232 7.30833C8.5262 7.29892 8.66053 7.29748 8.79459 7.30402C8.84875 7.30758 8.90265 7.31384 8.95659 7.32007C9.11585 7.33846 9.29098 7.43545 9.34986 7.56894C9.64818 8.24536 9.93764 8.92565 10.2182 9.60963C10.2801 9.76062 10.2428 9.95633 10.125 10.1457C10.0652 10.2428 9.97128 10.379 9.86248 10.5183C9.74939 10.663 9.50599 10.9291 9.50599 10.9291C9.50599 10.9291 9.40738 11.0473 9.44455 11.1944C9.45903 11.25 9.50521 11.331 9.54708 11.3991C9.57027 11.4368 9.5918 11.4705 9.60577 11.4938C9.86169 11.9211 10.2057 12.3543 10.6259 12.7616C10.7463 12.8783 10.8631 12.9974 10.9887 13.108C11.457 13.5209 11.9868 13.8583 12.559 14.1082L12.5641 14.1105C12.6486 14.1469 12.692 14.1668 12.8157 14.2193C12.8781 14.2457 12.9419 14.2685 13.0074 14.2858C13.0311 14.292 13.0554 14.2955 13.0798 14.2972C13.2415 14.3069 13.335 14.2032 13.3749 14.1555C14.0984 13.279 14.1646 13.2218 14.1696 13.2222V13.2238C14.2647 13.1236 14.4142 13.0888 14.5476 13.097C14.6085 13.1007 14.6691 13.1124 14.7245 13.1377C15.2563 13.3803 16.1258 13.7587 16.1258 13.7587L16.7073 14.0201C16.8047 14.0671 16.8936 14.1778 16.8979 14.2854C16.9005 14.3523 16.9077 14.4603 16.8838 14.6579C16.8525 14.9166 16.7738 15.2281 16.6956 15.3913C16.6406 15.5058 16.5694 15.6074 16.4866 15.6934C16.3743 15.81 16.2909 15.8808 16.1559 15.9814C16.0737 16.0426 16.0311 16.0714 16.0311 16.0714C15.8922 16.159 15.8139 16.2028 15.6484 16.2909C15.391 16.428 15.1066 16.5068 14.8153 16.5218C14.6296 16.5313 14.4444 16.5447 14.2589 16.5347C14.2507 16.5342 13.6907 16.4482 13.6907 16.4482C12.2688 16.0742 10.9538 15.3736 9.85034 14.402C9.62473 14.2034 9.4155 13.9885 9.20194 13.7759C8.31288 12.8908 7.63982 11.9364 7.23169 11.0336C7.03043 10.5884 6.90299 10.1116 6.90098 9.62098C6.89729 9.01405 7.09599 8.4232 7.46569 7.94186C7.53857 7.84697 7.60774 7.74855 7.72709 7.63586C7.85348 7.51651 7.93392 7.45244 8.02057 7.40811C8.13607 7.34902 8.26293 7.31742 8.39232 7.30833Z"></path>
    </symbol>
    <symbol id="linkedin-icon" viewBox="0 0 24 24">
        <path fill="currentColor" d="M6.94 5a2 2 0 1 1-4-.002 2 2 0 0 1 4 .002ZM7 8.48H3V21h4V8.48Zm6.32 0H9.34V21h3.94v-6.57c0-3.66 4.77-4 4.77 0V21H22v-7.93c0-6.17-7.06-5.94-8.72-2.91l.04-1.68Z"/>
    </symbol>
    <symbol id="pinterest-icon" viewBox="0 0 24 24">
        <path fill="currentColor" d="M13.372 2.094a10.003 10.003 0 0 0-5.369 19.074 7.756 7.756 0 0 1 .162-2.292c.185-.839 1.296-5.463 1.296-5.463a3.738 3.738 0 0 1-.324-1.577c0-1.485.857-2.593 1.923-2.593a1.334 1.334 0 0 1 1.342 1.508c0 .9-.578 2.262-.88 3.54a1.544 1.544 0 0 0 1.575 1.923c1.897 0 3.17-2.431 3.17-5.301 0-2.201-1.457-3.848-4.143-3.848a4.746 4.746 0 0 0-4.93 4.794 2.96 2.96 0 0 0 .648 1.97.48.48 0 0 1 .162.554c-.046.184-.162.623-.208.785a.354.354 0 0 1-.51.253c-1.384-.554-2.036-2.077-2.036-3.816 0-2.847 2.384-6.255 7.154-6.255 3.796 0 6.319 2.777 6.319 5.747 0 3.909-2.176 6.848-5.393 6.848a2.861 2.861 0 0 1-2.454-1.246s-.579 2.316-.692 2.754a8.025 8.025 0 0 1-1.019 2.131c.923.28 1.882.42 2.846.416a9.988 9.988 0 0 0 9.996-10.002 10.002 10.002 0 0 0-8.635-9.904Z"/>
    </symbol>
    <symbol id="dribbble-icon" viewBox="0 0 24 24">
        <path fill="currentColor" d="M12 2C6.48 2 2 6.48 2 12s4.48 10 10 10c5.51 0 10-4.48 10-10S17.51 2 12 2Zm6.605 4.61a8.502 8.502 0 0 1 1.93 5.314c-.281-.054-3.101-.629-5.943-.271-.065-.141-.12-.293-.184-.445a25.276 25.276 0 0 0-.564-1.236c3.145-1.28 4.577-3.124 4.761-3.362ZM12 3.475c2.17 0 4.154.814 5.662 2.148-.152.216-1.443 1.941-4.48 3.08-1.399-2.57-2.95-4.675-3.189-5A8.686 8.686 0 0 1 12 3.475Zm-3.633.803a53.9 53.9 0 0 1 3.167 4.935c-3.992 1.063-7.517 1.04-7.896 1.04a8.581 8.581 0 0 1 4.729-5.975ZM3.453 12.01v-.26c.37.01 4.512.065 8.775-1.215.25.477.477.965.694 1.453-.109.033-.228.065-.336.098-4.404 1.42-6.747 5.303-6.942 5.629a8.521 8.521 0 0 1-2.19-5.705ZM12 20.547a8.482 8.482 0 0 1-5.239-1.8c.152-.315 1.888-3.656 6.703-5.337.022-.01.033-.01.054-.022a35.316 35.316 0 0 1 1.823 6.475 8.4 8.4 0 0 1-3.341.684Zm4.761-1.465c-.086-.52-.542-3.015-1.66-6.084 2.68-.423 5.023.271 5.315.369a8.468 8.468 0 0 1-3.655 5.715Z"/>
    </symbol>
    <symbol id="tumblr-icon" viewBox="0 0 24 24">
        <path fill="currentColor" d="M6.27 7.63A5.76 5.76 0 0 0 10.817 2h3.03v5.152h3.637v3.636h-3.637v5.454c0 .515.198 1.207.91 1.667.474.307 1.484.458 3.03.455V22h-4.243a4.546 4.546 0 0 1-4.545-4.546v-6.666H6.27V7.63Z"/>
    </symbol>
    <symbol id="youtube-icon" viewBox="0 0 24 24">
        <path fill="currentColor" d="M12.244 4c.534.003 1.87.016 3.29.073l.504.022c1.429.067 2.857.183 3.566.38.945.266 1.687 1.04 1.938 2.022.4 1.56.45 4.602.456 5.339l.001.152v.174c-.007.737-.057 3.78-.457 5.339-.254.985-.997 1.76-1.938 2.022-.709.197-2.137.313-3.566.38l-.504.023c-1.42.056-2.756.07-3.29.072l-.235.001h-.255c-1.13-.007-5.856-.058-7.36-.476-.944-.266-1.687-1.04-1.938-2.022-.4-1.56-.45-4.602-.456-5.339v-.326c.006-.737.056-3.78.456-5.339.254-.985.997-1.76 1.939-2.021 1.503-.419 6.23-.47 7.36-.476h.489ZM9.999 8.5v7l6-3.5-6-3.5Z"/>
    </symbol>
    <symbol id="flickr-icon" viewBox="0 0 24 24">
        <path fill="currentColor" d="M11 12a5 5 0 1 1-10 0 5 5 0 0 1 10 0Zm12 0a5 5 0 1 1-10 0 5 5 0 0 1 10 0Z"/>
    </symbol>
    <symbol id="twitch-icon" viewBox="0 0 24 24">
        <path fill="currentColor" d="M21.001 3v11.74l-4.696 4.695h-3.913l-2.437 2.348H6.914v-2.348H3.001V6.13L4.228 3h16.773Zm-1.565 1.565H6.13v11.74h3.13v2.347l2.349-2.348h4.695l3.13-3.13V4.565Zm-3.13 3.13v4.696H14.74V7.696h1.565Zm-3.914 0v4.696h-1.565V7.696h1.565Z"/>
    </symbol>
    <symbol id="discord-icon" viewBox="0 0 24 24">
        <path fill="currentColor" d="M19.303 5.337A17.32 17.32 0 0 0 14.963 4c-.191.329-.403.775-.552 1.125a16.592 16.592 0 0 0-4.808 0C9.454 4.775 9.23 4.329 9.05 4a17.075 17.075 0 0 0-4.342 1.337C1.961 9.391 1.218 13.35 1.59 17.255a17.69 17.69 0 0 0 5.318 2.664 12.94 12.94 0 0 0 1.136-1.836c-.627-.234-1.22-.52-1.794-.86.149-.106.297-.223.435-.34 3.46 1.582 7.207 1.582 10.624 0 .149.117.287.234.435.34-.573.34-1.167.626-1.793.86a12.94 12.94 0 0 0 1.135 1.836 17.594 17.594 0 0 0 5.318-2.664c.457-4.52-.722-8.448-3.1-11.918ZM8.52 14.846c-1.04 0-1.889-.945-1.889-2.101 0-1.157.828-2.102 1.89-2.102 1.05 0 1.91.945 1.888 2.102 0 1.156-.838 2.1-1.889 2.1Zm6.974 0c-1.04 0-1.89-.945-1.89-2.101 0-1.157.828-2.102 1.89-2.102 1.05 0 1.91.945 1.889 2.102 0 1.156-.828 2.1-1.89 2.1Z"/>
    </symbol>
    <symbol id="vk-icon" viewBox="0 0 24 24">
        <path fill="currentColor" d="M4.26 4.26C3 5.532 3 7.566 3 11.64v.72c0 4.068 0 6.102 1.26 7.38C5.532 21 7.566 21 11.64 21h.72c4.068 0 6.102 0 7.38-1.26C21 18.468 21 16.434 21 12.36v-.72c0-4.068 0-6.102-1.26-7.38C18.468 3 16.434 3 12.36 3h-.72C7.572 3 5.538 3 4.26 4.26Zm1.776 4.218H8.1c.066 3.432 1.578 4.884 2.778 5.184V8.478h1.938v2.958c1.182-.126 2.43-1.476 2.85-2.964h1.932a5.717 5.717 0 0 1-2.628 3.738 5.92 5.92 0 0 1 3.078 3.756h-2.13c-.456-1.422-1.596-2.526-3.102-2.676v2.676H12.576c-4.104 0-6.444-2.808-6.54-7.488Z"/>
    </symbol>
    <symbol id="telegram-icon" viewBox="0 0 24 24">
        <path fill="currentColor" d="M12.001 22c-5.523 0-10-4.477-10-10s4.477-10 10-10 10 4.477 10 10-4.477 10-10 10Zm-3.11-8.83.013-.007.87 2.87c.112.311.266.367.453.341.188-.025.287-.126.41-.244l1.188-1.148 2.55 1.888c.466.257.801.124.917-.432l1.658-7.822c.183-.728-.139-1.02-.703-.788l-9.733 3.76c-.664.266-.66.638-.12.803l2.497.78Z"/>
    </symbol>
    <symbol id="tiktok-icon" viewBox="0 0 24 24">
        <path fill="currentColor" d="M16 8.245V15.5a6.5 6.5 0 1 1-5-6.326v3.163a3.5 3.5 0 1 0 2 3.163V2h3a5 5 0 0 0 5 5v3a7.966 7.966 0 0 1-5-1.755Z"/>
    </symbol>
    <symbol id="github-icon" viewBox="0 0 24 24">
        <path fill="currentColor" d="M12.001 2c-5.525 0-10 4.475-10 10a9.994 9.994 0 0 0 6.837 9.488c.5.087.688-.213.688-.476 0-.237-.013-1.024-.013-1.862-2.512.463-3.162-.612-3.362-1.175-.113-.288-.6-1.175-1.025-1.413-.35-.187-.85-.65-.013-.662.788-.013 1.35.725 1.538 1.025.9 1.512 2.337 1.087 2.912.825.088-.65.35-1.087.638-1.337-2.225-.25-4.55-1.113-4.55-4.938 0-1.088.387-1.987 1.025-2.688-.1-.25-.45-1.275.1-2.65 0 0 .837-.262 2.75 1.026a9.28 9.28 0 0 1 2.5-.338c.85 0 1.7.112 2.5.337 1.913-1.3 2.75-1.024 2.75-1.024.55 1.375.2 2.4.1 2.65.637.7 1.025 1.587 1.025 2.687 0 3.838-2.337 4.688-4.563 4.938.363.312.676.912.676 1.85 0 1.337-.013 2.412-.013 2.75 0 .262.188.574.688.474A10.016 10.016 0 0 0 22 12c0-5.525-4.475-10-10-10Z"/>
    </symbol>    
    <symbol id="rss-icon" viewBox="0 0 24 24">
        <path fill="currentColor" d="M3 3c9.941 0 18 8.059 18 18h-3c0-8.284-6.716-15-15-15V3Zm0 7c6.075 0 11 4.925 11 11h-3a8 8 0 0 0-8-8v-3Zm0 7a4 4 0 0 1 4 4H3v-4Z"/>
    </symbol>
    <symbol id="email-icon" viewBox="0 0 24 24">
        <path fill="currentColor" fill-rule="evenodd" d="M7 2.75c-1.615 0-3.075.404-4.135 1.388C1.795 5.132 1.25 6.607 1.25 8.5v7c0 1.893.545 3.369 1.615 4.362 1.06.984 2.52 1.388 4.135 1.388h10c1.615 0 3.075-.404 4.135-1.388 1.07-.993 1.615-2.469 1.615-4.362v-7c0-1.893-.545-3.368-1.615-4.362-1.06-.984-2.52-1.388-4.135-1.388H7Zm12.229 5.612a.75.75 0 0 0-.918-1.187l-5.547 4.287a1.25 1.25 0 0 1-1.528 0L5.689 7.175a.75.75 0 1 0-.918 1.187l5.548 4.287a2.75 2.75 0 0 0 3.362 0l5.548-4.287Z" clip-rule="evenodd"/>
    </symbol>  
</svg>